<?xml version="1.0" standalone="no"?><!DOCTYPE svg PUBLIC "-//W3C//DTD SVG 1.1//EN" "http://www.w3.org/Graphics/SVG/1.1/DTD/svg11.dtd"><svg t="1551350869108" class="icon" style="" viewBox="0 0 1024 1024" version="1.1" xmlns="http://www.w3.org/2000/svg" p-id="1133" xmlns:xlink="http://www.w3.org/1999/xlink" width="32" height="32"><defs><style type="text/css"></style></defs><path d="M120.662454 834.043626C61.634611 552.620709 152.598905 407.405393 292.354999 311.459558 467.186598 191.356665 652.59544 164.674715 788.188877 34.676981c81.820096-78.476322 109.59389-1.023604 113.005904 11.805568 48.58708 184.794679 15.763505 389.652001-171.078383 549.061297-203.970198 173.807994-508.52657 99.630809-574.583161 414.423223a7.506431 7.506431 0 0 1-4.572099 5.186261l-21.700409 7.915873a7.779392 7.779392 0 0 1-7.096989-0.750644 6.346346 6.346346 0 0 1-2.866092-6.141625 855.937837 855.937837 0 0 1 152.448787-395.111223c77.111517-110.344533 181.860347-212.227272 310.152074-309.947354a8.939477 8.939477 0 0 0 1.774248-13.102134 10.986685 10.986685 0 0 0-14.330459-1.978968c-102.701622 64.623546-191.550467 132.590865-265.591172 215.434565C226.366648 598.136976 164.882156 701.31628 120.662454 834.043626z" fill="#1296db" p-id="1134"></path></svg>