<?xml version="1.0" standalone="no"?><!DOCTYPE svg PUBLIC "-//W3C//DTD SVG 1.1//EN" "http://www.w3.org/Graphics/SVG/1.1/DTD/svg11.dtd"><svg t="1551351927244" class="icon" style="" viewBox="0 0 1024 1024" version="1.1" xmlns="http://www.w3.org/2000/svg" p-id="2221" xmlns:xlink="http://www.w3.org/1999/xlink" width="32" height="32"><defs><style type="text/css"></style></defs><path d="M986.588437 422.858774C704.26849 256.769015 590.221014 96.581686 551.051923 58.048067c-39.171138-38.534642-73.124438 0-73.124438 0C250.73509 374.049115 46.476009 422.858774 46.476009 422.858774c-49.620118 48.812729 82.813101 55.977919 82.813101 55.977919 52.755528 170.233126 47.753607 447.553199 47.753607 447.553199l668.532079 0c32.775474-380.079458 63.36312-450.65484 63.36312-450.65484C1013.393943 475.736075 986.588437 422.858774 986.588437 422.858774L986.588437 422.858774zM782.891152 859.594603 244.942153 859.594603c-13.062504-318.565453-47.000454-418.751223-47.000454-418.751223 151.461597-69.365834 313.934992-285.167808 313.934992-285.167808 117.152187 132.22958 333.694011 272.320199 333.694011 272.320199C801.332153 576.419172 782.891152 859.594603 782.891152 859.594603L782.891152 859.594603zM782.891152 859.594603" p-id="2222" fill="#1296db"></path><path d="M666.031631 739.904617l-95.76918-17.575284c-9.347902-1.523703-17.368576-6.244214-23.137976-12.866029-0.375553-0.408299-0.725524-0.842181-1.075495-1.280156-0.050142-0.068562-0.102331-0.138146-0.157589-0.207731-0.186242-0.246617-0.393973-0.473791-0.572028-0.729617l-0.058328-0.102331c-1.868557-2.503007-3.439332-5.229095-4.6673-8.121981l-38.581714-67.184145-21.651113 118.512161-148.97701 0.434905 42.566468-205.707059c12.308327-49.597605 50.291406-57.095369 75.622328-54.845119 29.572526-2.7486 60.695361 14.861476 73.160253 32.582069l90.042759 128.003326 65.785286 12.07092c21.271466 3.465938 35.70827 23.509437 32.250518 44.775786C707.351712 728.931704 687.303097 743.364415 666.031631 739.904617L666.031631 739.904617z" p-id="2223" fill="#1296db"></path><path d="M515.835863 474.144834c-47.01785 0-85.133959-38.107923-85.133959-85.120656 0-47.01171 38.117133-85.119633 85.133959-85.119633 47.015803 0 85.129866 38.107923 85.129866 85.119633C600.965729 436.036911 562.851667 474.144834 515.835863 474.144834L515.835863 474.144834z" p-id="2224" fill="#1296db"></path></svg>