<?xml version="1.0" standalone="no"?><!DOCTYPE svg PUBLIC "-//W3C//DTD SVG 1.1//EN" "http://www.w3.org/Graphics/SVG/1.1/DTD/svg11.dtd"><svg t="1551351971091" class="icon" style="" viewBox="0 0 1024 1024" version="1.1" xmlns="http://www.w3.org/2000/svg" p-id="3152" xmlns:xlink="http://www.w3.org/1999/xlink" width="32" height="32"><defs><style type="text/css"></style></defs><path d="M711.68 378.713c15.681 0.167 89.254 47.659 142.844 114.545 47.56 2.25 92.534 7.536 112.006 9.82 18.782 2.2 27.226 15.871 38.426 37.527 11.373 21.657 8.789 27.892-15.336 37.528-24.296 9.653-46.18 15.005-46.18 15.005s47.346 56.153 61.131 78.126c7.927 12.72 7.41 25.591 7.41 67.554 0 31.459 0.172 209.928-0.517 238.637-0.69 25.974-25.807 34.273-50.448 34.523-31.19 0.333-130.505-3.18-147.909-3.18-22.401 0-34.808-14.222-34.808-30.01V910.78H212.042v68.008c0 15.788-8.443 30.01-30.845 30.01-17.403 0-104.684 2.311-135.701 1.994-24.814-0.266-30.845-11.57-31.534-37.544-0.69-28.708-2.12-222.027-1.948-262.522 0.173-25.707 1.034-25.874 8.616-39.528 12.751-22.557 59.333-78.194 59.333-78.194s-21.712-5.518-46.009-15.171c-24.124-9.62-26.536-16.155-15.336-37.811 11.2-21.64 19.644-35.894 38.427-38.095 19.471-2.284 64.274-6.402 111.833-8.669 53.418-66.886 93.919-114.378 109.427-114.545h433.376zM318.804 753.835c0.172-6.219-7.582-22.323-47.043-27.758-38.426-5.319-157.152-15.088-157.152-13.888-0.69 16.005-16.025 72.705 31.362 76.356 37.22 2.868 172.833 6.935 172.833 6.935v-41.645z m565.126 34.71c47.56-3.701 32.051-60.368 31.534-76.356-0.172-1.2-118.553 8.57-157.152 13.888-39.46 5.435-47.043 21.54-47.043 27.758 0.173 6.235 0 33.643 0 41.645 0 0 135.441-4.067 172.661-6.935zM202.862 610.792c42.735-0.15 200.404-0.083 308.963-0.05 108.904-0.033 266.918-0.1 309.653 0.05 14.302 0.05-3.312-63.618-46.391-114.316-53.59-63.219-70.268-52.272-79.4-52.338-13.786-0.117-72.028-0.134-123.723-0.034-17.232 0-29.294-0.033-60.139-0.05-31.017 0.017-43.251 0.05-60.483-0.033-68.926-0.017-112.005 0-125.79 0.117-8.961 0.066-23.818-13.165-77.409 52.338-36.358 44.263-59.41 114.366-45.28 114.316zM390.477 273.81c0.172 0.8 0.172 1.55 0.344 2.301 0.173 0.734 0.173 1.484 0.345 2.25 0 1.451 0.172 2.785 0.172 3.885 0 25.658-23.262 46.464-51.695 46.464-28.604 0-51.867-20.806-51.867-46.464 0-1.117 0.172-2.45 0.345-3.9 0-0.768 0.172-1.535 0.172-2.285 0.172-0.7 0.345-1.417 0.345-2.167 0.172-0.65 0.344-1.284 0.517-1.934 3.274-14.004 14.647-36.11 50.833-59.934 35.67 23.623 46.87 46.03 50.144 60.1 0 0.55 0.172 1.118 0.345 1.684z m121.483 54.9c-28.605 0-51.695-20.806-51.695-46.464 0-1.117 0-2.45 0.172-3.9 0-0.768 0.172-1.535 0.345-2.285 0-0.7 0.172-1.417 0.344-2.167 0-0.65 0.173-1.284 0.345-1.934 3.446-14.004 14.82-36.11 50.833-59.934 35.67 23.623 46.87 46.03 50.144 60.1 0.173 0.55 0.173 1.118 0.345 1.684 0.172 0.8 0.345 1.55 0.345 2.301 0.172 0.734 0.172 1.484 0.344 2.25 0.172 1.451 0.172 2.785 0.172 3.885 0 25.658-23.09 46.464-51.694 46.464z m172.316 0c-28.605 0-51.695-20.806-51.695-46.464 0-1.117 0-2.45 0.172-3.9 0-0.768 0.173-1.535 0.345-2.285 0-0.7 0.172-1.417 0.345-2.167 0.172-0.65 0.172-1.284 0.344-1.934 3.447-14.004 14.82-36.11 51.006-59.934 35.497 23.623 46.698 46.03 49.972 60.1 0.172 0.55 0.172 1.118 0.344 1.684 0.172 0.8 0.345 1.55 0.345 2.301 0.172 0.734 0.344 1.484 0.344 2.25 0.173 1.451 0.173 2.785 0.173 3.885 0 25.658-23.09 46.464-51.695 46.464zM425.8 212.026c-28.604 0-51.867-20.807-51.867-46.464 0-1.117 0.173-2.45 0.345-3.901 0-0.767 0.172-1.534 0.172-2.284 0.173-0.7 0.345-1.4 0.517-2.168 0-0.65 0.172-1.283 0.345-1.933 3.274-14.005 14.819-36.111 50.833-59.918 35.67 23.607 46.87 46.013 50.144 60.084 0 0.567 0.172 1.117 0.345 1.7 0.172 0.801 0.172 1.535 0.344 2.285 0.173 0.75 0.173 1.5 0.345 2.25 0.172 1.45 0.172 2.785 0.172 3.885 0 25.657-23.09 46.464-51.695 46.464z m224.012-46.464c0 25.657-23.263 46.464-51.868 46.464-28.432 0-51.694-20.807-51.694-46.464 0-1.117 0.172-2.45 0.172-3.901 0.172-0.767 0.172-1.534 0.345-2.284 0.172-0.7 0.172-1.4 0.344-2.168 0.172-0.65 0.345-1.283 0.517-1.933 3.274-14.005 14.647-36.111 50.833-59.918 35.67 23.607 46.698 46.013 49.972 60.084 0.172 0.567 0.345 1.117 0.517 1.7 0 0.801 0.172 1.535 0.345 2.285 0 0.75 0.172 1.5 0.172 2.25 0.172 1.45 0.345 2.785 0.345 3.885zM667.733 12c22.746 0.033 42.907 18.389 50.145 45.597 2.757 10.37-3.447 21.09-12.063 21.09H317.931c-8.615 0-14.819-10.72-12.062-21.09 7.238-27.208 27.399-45.564 50.144-45.597h311.72z" p-id="3153" fill="#1296db"></path></svg>