<?xml version="1.0" standalone="no"?><!DOCTYPE svg PUBLIC "-//W3C//DTD SVG 1.1//EN" "http://www.w3.org/Graphics/SVG/1.1/DTD/svg11.dtd"><svg t="1551352045728" class="icon" style="" viewBox="0 0 1024 1024" version="1.1" xmlns="http://www.w3.org/2000/svg" p-id="5122" xmlns:xlink="http://www.w3.org/1999/xlink" width="32" height="32"><defs><style type="text/css"></style></defs><path d="M382.976 972.8c-78.848 0-153.088-30.72-208.896-86.528-55.808-55.808-86.528-130.048-86.528-208.896 0-78.848 30.72-153.088 86.528-208.896l291.84-291.84c55.808-55.808 130.048-86.528 208.896-86.528 78.848 0 153.088 30.72 208.896 86.528s86.528 130.048 86.528 208.896c0 78.848-30.72 153.088-86.528 208.896l-291.84 291.84C536.064 942.08 461.824 972.8 382.976 972.8z m-159.232-135.68c42.496 42.496 99.328 66.048 159.744 66.048s116.736-23.552 159.744-66.048l291.84-291.84c88.064-88.064 88.064-230.912 0-318.976-42.496-42.496-99.328-66.048-159.744-66.048s-116.736 23.552-159.744 66.048l-291.84 291.84c-88.064 87.552-88.064 230.912 0 318.976z" fill="#1296db" p-id="5123"></path><path d="M325.632 380.416l49.664-49.664 359.936 359.936-49.664 49.664-359.936-359.936zM299.52 181.248h-6.144c-16.896 0-30.72-14.336-30.72-31.744s13.824-31.744 30.72-31.744h6.144c16.896 0 30.72 14.336 30.72 31.744s-13.824 31.744-30.72 31.744zM153.088 361.472c-40.96 0-74.24-33.28-74.24-74.24s33.28-74.24 74.24-74.24 74.24 33.28 74.24 74.24-33.792 74.24-74.24 74.24z m0-97.792c-13.312 0-24.064 10.752-24.064 24.064s10.752 24.064 24.064 24.064 24.064-10.752 24.064-24.064-11.264-24.064-24.064-24.064z" fill="#1296db" p-id="5124"></path></svg>