<?xml version="1.0" standalone="no"?><!DOCTYPE svg PUBLIC "-//W3C//DTD SVG 1.1//EN" "http://www.w3.org/Graphics/SVG/1.1/DTD/svg11.dtd"><svg t="1523610045708" class="icon" style="" viewBox="0 0 1024 1024" version="1.1" xmlns="http://www.w3.org/2000/svg" p-id="2858" xmlns:xlink="http://www.w3.org/1999/xlink" width="25" height="25"><defs><style type="text/css"></style></defs><path d="M772.4 445.1c0 153.4-124.4 277.8-277.8 277.8S216.8 598.5 216.8 445.1s124.4-277.8 277.8-277.8 277.8 124.4 277.8 277.8z" fill="#F7653E" p-id="2859"></path><path d="M772.4 453.8c-4.8 0-8.7-3.9-8.7-8.7 0-89.5-44.4-172.9-118.7-223.1-4-2.7-5-8.1-2.3-12.1s8.1-5 12.1-2.3c79.1 53.4 126.3 142.3 126.3 237.6 0.1 4.7-3.8 8.6-8.7 8.6z" fill="#705B57" p-id="2860"></path><path d="M96.4 546.9h831.4c20.9 0 37.8 16.2 37.8 37.1 0 20.9-16.9 37.1-37.8 37.1h-416c-6.7 0.1-12.1 5.6-12.1 12.4 0 6.8 5.4 12.2 12.1 12.3h170.3c20.9 0 37.8 20.4 37.8 41.3s-16.9 41.2-37.8 41.2h151.2c20.9 0 37.8 20.4 37.8 41.3s-16.9 41.2-37.8 41.2H342c-20.9 0-37.8-20.4-37.8-41.2 0-20.9 16.9-41.3 37.8-41.3H190.9c-20.9 0-37.8-20.4-37.8-41.2 0-20.9 16.9-41.3 37.8-41.3h32.3c6.8 0 12.4-5.5 12.4-12.4 0-6.8-5.5-12.4-12.4-12.4H96.4c-20.9 0-37.8-16.2-37.8-37.1 0-20.7 16.9-37 37.8-37z" fill="#AEF4E4" p-id="2861"></path><path d="M833.3 819.6H653c-4.8 0-8.7-3.9-8.7-8.7 0-4.8 3.9-8.7 8.7-8.7h180.3c15.2 0 29.1-15.5 29.1-32.5s-13.8-32.5-29.1-32.5H682.2c-4.8 0-8.7-3.9-8.7-8.7s3.9-8.7 8.7-8.7c15.2 0 29.1-15.5 29.1-32.5s-13.9-32.5-29.1-32.5H511.9c-11.6-0.3-20.9-9.7-20.9-21.1 0-11.4 9.3-20.8 20.7-21.1h416.1c16.3 0 29.1-12.5 29.1-28.4 0-15.9-12.8-28.4-29.1-28.4H344.1c-4.8 0-8.7-3.9-8.7-8.7s3.9-8.7 8.7-8.7h583.7c26.1 0 46.5 20.1 46.5 45.8 0 25.7-20.4 45.8-46.5 45.8H511.9c-1.8 0-3.4 1.7-3.4 3.7s1.6 3.6 3.6 3.6h170.1c24.8 0 46.5 23.4 46.5 50 0 12.2-4.5 23.6-11.8 32.5h116.5c24.8 0 46.5 23.4 46.5 50-0.1 26.5-21.8 49.8-46.6 49.8z" fill="#54686B" p-id="2862"></path></svg>