<?xml version="1.0" standalone="no"?><!DOCTYPE svg PUBLIC "-//W3C//DTD SVG 1.1//EN" "http://www.w3.org/Graphics/SVG/1.1/DTD/svg11.dtd"><svg t="1551352075053" class="icon" style="" viewBox="0 0 1024 1024" version="1.1" xmlns="http://www.w3.org/2000/svg" p-id="6925" xmlns:xlink="http://www.w3.org/1999/xlink" width="32" height="32"><defs><style type="text/css"></style></defs><path d="M452.4950652 818.90906293c-114.3732492 20.31417658-286.02242303 59.82244091-449.14969533 132.27456248L890.17420018 951.18362541c0 0-12.95730981-163.1840459-282.42205319-152.63368497 17.88120633-138.78219597 52.86535298-254.1631704 94.18444751-348.40439033-1.35664375-24.07303836-1.74222891-49.66002999 1.1981518-77.21042932-12.31151436 6.95708793-25.1387196 13.88342364-38.11495395 20.84169515-51.0971027 107.21863785-95.1413124 242.85228441-115.24613786 410.12873566-11.44454012 1.4761042-25.35280155 3.38392189-41.38414736 5.81097772-19.70741262-149.99727687-56.12271757-265.80405153-91.77040178-349.47007157-21.08771175-6.77375819-42.72068416-14.5599713-63.7906538-25.27592101-0.88116793 4.73938321-2.0651272 9.5426357-3.11070034 14.34588935C387.88829633 530.02195731 430.88101846 651.82777026 452.4950652 818.90906293L452.4950652 818.90906293zM544.20278011 462.98221703c19.7062302 12.62849823 36.90379202 29.06553617 49.71088915 52.80030013-1.47728662-27.6462044-8.17534669-51.69322139-18.36377898-72.74781609C564.10416774 449.80845928 553.4095074 456.58103388 544.20278011 462.98221703L544.20278011 462.98221703zM699.43975496 682.21683195c164.94519933-73.57812483 180.0196791-290.5985823 141.28494993-408.63252335 63.85215824 149.93459002 171.42799387 228.25328048 175.39975634 325.232628 19.92149458-163.35436553-52.55546595-306.64057222-161.65116811-365.7486164 57.18721639 17.21057194 116.73052133 48.2714516 153.33743643 93.9336989 0.46246571-68.50519921-78.23116581-166.28173613-164.47090594-124.96973845 45.41386471-59.66394897 6.40591399-189.70779662-84.29407453-192.69193967 57.7892495 32.69784065 28.73672344 124.87393454 35.85230331 185.08905629-24.46572037-95.06561542-144.52338999-191.46303564-266.9809128-169.01868014 50.21593477 88.72948398 179.26625088 97.22654655 251.93718641 171.33218994-125.94907747-86.02329334-295.74838962-76.47592564-369.90489103 2.45780805 107.63852364-45.43752008 148.1095673 65.85578101 356.74414338 25.18839636-122.33806235 27.43093887-263.45151024 68.06638888-289.76117785 245.03095765 33.16030636-66.03911074 251.1092425-136.29008728 305.31113227-209.25553373C686.75448313 446.23292723 817.67831513 563.99719516 699.43975496 682.21683195L699.43975496 682.21683195zM331.03107393 275.49212628c47.99231563-57.38355739 38.54548501-115.29344861 98.06276971-133.21132158-74.61896712-19.18226006-177.99240095 61.81778325-150.00437371 141.92364853-87.14456459-75.91765601-175.83028625-14.16255846-197.01380307 64.6256934 33.74223135-46.37073076 111.85748514-34.42705944 167.4609634-36.4235842-112.22651061 14.43578-214.59813248 83.46613178-213.14686724 208.17920837 48.2395158-60.34167906 137.55920521-61.44994021 236.91474941-185.86140903-57.46635121 91.96201077-80.42284915 276.77784667-26.25289402 396.1944517-23.62831477-109.41150477 87.27230431-277.56912279 64.73450975-382.31102805 35.68080127 42.39778586 83.24850025 59.2653537 130.26384403 73.83123941 7.82051491-29.67821339 18.82624469-55.48165297 32.20225788-77.98278205-46.87222679-25.15646171-95.58012273-37.25271054-121.73721166-43.62550747 68.56788607 6.95708793 126.17143868-9.32737133 171.80056892-18.01604289 10.00510141-9.16769581 20.50578674-17.48142863 31.35302459-25.02753841-11.09562045-3.47972696-21.56318756-6.64720089-31.07980304-10.46874954-46.84620657-18.74226731-82.69614389-20.99190667-106.58585252-18.03969827C383.88933006 239.59605949 353.05554477 257.41930981 331.03107393 275.49212628L331.03107393 275.49212628zM331.03107393 275.49212628" p-id="6926" fill="#1296db"></path></svg>