<?xml version="1.0" standalone="no"?><!DOCTYPE svg PUBLIC "-//W3C//DTD SVG 1.1//EN" "http://www.w3.org/Graphics/SVG/1.1/DTD/svg11.dtd"><svg t="1551352104820" class="icon" style="" viewBox="0 0 1740 1024" version="1.1" xmlns="http://www.w3.org/2000/svg" p-id="8762" xmlns:xlink="http://www.w3.org/1999/xlink" width="54.375" height="32"><defs><style type="text/css"></style></defs><path d="M0 93.174683h111.29767v563.758024c0 89.488651 20.375562 157.270673 63.788821 203.346065 44.744326 47.30407 115.393261 71.570443 211.742026 71.570443 95.017698 0 165.564244-24.266373 211.742026-71.672833 41.979802-45.973003 63.788821-113.652635 63.788821-203.243675V93.174683h111.29767v562.631736c0 118.772123-32.662334 209.694231-96.451155 272.356765-66.553345 63.891211-162.79972 95.836816-290.377362 95.836816-127.577642 0-223.926407-31.945605-289.148685-94.608139C32.559944 865.39826 0 774.578542 0 655.70403V93.072293z m870.312969 7.781621h117.338666l290.786921 807.855215h3.890811l262.015399-617.717428h-167.919209L1720.659934 0 1740.625937 421.948205l-108.123587-98.49895L1346.220578 1023.89761h-131.673233L870.312969 100.956304z" p-id="8763" fill="#1296db"></path></svg>