<?xml version="1.0" standalone="no"?><!DOCTYPE svg PUBLIC "-//W3C//DTD SVG 1.1//EN" "http://www.w3.org/Graphics/SVG/1.1/DTD/svg11.dtd"><svg t="1523610930360" class="icon" style="" viewBox="0 0 1024 1024" version="1.1" xmlns="http://www.w3.org/2000/svg" p-id="6878" xmlns:xlink="http://www.w3.org/1999/xlink" width="25" height="25"><defs><style type="text/css"></style></defs><path d="M285.9 394.4h499.3c55.4 0 100.4-45 100.4-100.4s-45-100.4-100.4-100.4c-18.6 0-33.7 15.1-33.7 33.7s15.1 33.7 33.7 33.7c18.2 0 33 14.8 33 33s-14.8 33-33 33H285.9c-18.6 0-33.7 15.1-33.7 33.7s15.1 33.7 33.7 33.7zM704.3 512c0-18.6-15.1-33.7-33.7-33.7h-523c-18.6 0-33.7 15.1-33.7 33.7s15.1 33.7 33.7 33.7h523.1c18.5 0 33.6-15.1 33.6-33.7zM451.5 629.6h-96.4c-18.6 0-33.7 15.1-33.7 33.7s15.1 33.7 33.7 33.7h96.4c18.6 0 33.7-15.1 33.7-33.7s-15.1-33.7-33.7-33.7zM785.2 629.6H545.5c-18.6 0-33.7 15.1-33.7 33.7s15.1 33.7 33.7 33.7h239.7c18.2 0 33 14.8 33 33s-14.8 33-33 33c-18.6 0-33.7 15.1-33.7 33.7s15.1 33.7 33.7 33.7c55.4 0 100.4-45 100.4-100.4s-45-100.4-100.4-100.4z" fill="#C7E2FF" p-id="6879"></path></svg>